<mxfile host="Electron" agent="Mozilla/5.0 (Windows NT 10.0; Win64; x64) AppleWebKit/537.36 (KHTML, like Gecko) draw.io/24.7.17 Chrome/128.0.6613.36 Electron/32.0.1 Safari/537.36" version="24.7.17">
  <diagram name="Page-1" id="4z8QRBih95fRYADi5fDW">
    <mxGraphModel dx="3000" dy="1275" grid="1" gridSize="10" guides="1" tooltips="1" connect="1" arrows="1" fold="1" page="1" pageScale="1" pageWidth="850" pageHeight="1100" math="0" shadow="0">
      <root>
        <mxCell id="0" />
        <mxCell id="1" parent="0" />
        <mxCell id="WecddZ69IYoT9JCLgWX9-24" value="" style="rounded=0;whiteSpace=wrap;html=1;fillColor=#F7F7C6;" parent="1" vertex="1">
          <mxGeometry x="-140" y="130" width="1030" height="530" as="geometry" />
        </mxCell>
        <mxCell id="r_Da3WctcucYN66TgovH-54" value="" style="rounded=0;whiteSpace=wrap;html=1;fillColor=none;dashed=1;shadow=1;" parent="1" vertex="1">
          <mxGeometry x="590" y="230" width="230" height="280" as="geometry" />
        </mxCell>
        <mxCell id="r_Da3WctcucYN66TgovH-1" value="" style="rounded=0;whiteSpace=wrap;html=1;fillColor=#B8E6B8;shadow=1;" parent="1" vertex="1">
          <mxGeometry x="230" y="230" width="330" height="290" as="geometry" />
        </mxCell>
        <mxCell id="WecddZ69IYoT9JCLgWX9-9" style="edgeStyle=orthogonalEdgeStyle;rounded=0;orthogonalLoop=1;jettySize=auto;html=1;entryX=0.5;entryY=0;entryDx=0;entryDy=0;fillColor=#b6e3e7;" parent="1" source="r_Da3WctcucYN66TgovH-15" target="r_Da3WctcucYN66TgovH-39" edge="1">
          <mxGeometry relative="1" as="geometry" />
        </mxCell>
        <mxCell id="WecddZ69IYoT9JCLgWX9-11" style="edgeStyle=orthogonalEdgeStyle;rounded=0;orthogonalLoop=1;jettySize=auto;html=1;fillColor=#b6e3e7;" parent="1" source="r_Da3WctcucYN66TgovH-17" target="r_Da3WctcucYN66TgovH-39" edge="1">
          <mxGeometry relative="1" as="geometry" />
        </mxCell>
        <mxCell id="r_Da3WctcucYN66TgovH-17" value="&lt;span style=&quot;font-size: 24px; text-wrap: nowrap;&quot;&gt;&lt;b&gt;BankMachine_3*&lt;/b&gt;&lt;/span&gt;" style="rounded=0;whiteSpace=wrap;html=1;fillColor=#7EA6E0;shadow=1;" parent="1" vertex="1">
          <mxGeometry x="270" y="445" width="250" height="40" as="geometry" />
        </mxCell>
        <mxCell id="r_Da3WctcucYN66TgovH-39" value="" style="shape=trapezoid;perimeter=trapezoidPerimeter;whiteSpace=wrap;html=1;fixedSize=1;rotation=-90;size=30;fillColor=#7EA6E0;shadow=1;" parent="1" vertex="1">
          <mxGeometry x="590" y="420" width="120" height="30" as="geometry" />
        </mxCell>
        <mxCell id="r_Da3WctcucYN66TgovH-52" value="" style="rounded=0;whiteSpace=wrap;html=1;fillColor=#B8E6B8;shadow=1;" parent="1" vertex="1">
          <mxGeometry x="-100" y="170" width="300" height="350" as="geometry" />
        </mxCell>
        <mxCell id="r_Da3WctcucYN66TgovH-56" value="&lt;b&gt;&lt;font style=&quot;font-size: 24px;&quot;&gt;Timer&lt;/font&gt;&lt;/b&gt;" style="rounded=0;whiteSpace=wrap;html=1;fillColor=#7EA6E0;shadow=1;" parent="1" vertex="1">
          <mxGeometry x="-70" y="220" width="180" height="160" as="geometry" />
        </mxCell>
        <mxCell id="r_Da3WctcucYN66TgovH-57" value="&lt;b&gt;&lt;font style=&quot;font-size: 24px;&quot;&gt;Sequencer&lt;/font&gt;&lt;/b&gt;" style="rounded=0;whiteSpace=wrap;html=1;rotation=-90;fillColor=#7EA6E0;shadow=1;" parent="1" vertex="1">
          <mxGeometry x="19.06" y="334.05" width="280" height="50.05" as="geometry" />
        </mxCell>
        <mxCell id="r_Da3WctcucYN66TgovH-58" value="&lt;b&gt;&lt;font style=&quot;font-size: 24px;&quot;&gt;Postponer&lt;/font&gt;&lt;/b&gt;" style="rounded=0;whiteSpace=wrap;html=1;fillColor=#7EA6E0;shadow=1;" parent="1" vertex="1">
          <mxGeometry x="-70" y="400.98" width="180" height="99.02" as="geometry" />
        </mxCell>
        <mxCell id="r_Da3WctcucYN66TgovH-81" value="&lt;font style=&quot;font-size: 24px;&quot;&gt;&lt;b style=&quot;&quot;&gt;Multiplexer&lt;/b&gt;&lt;/font&gt;" style="rounded=0;whiteSpace=wrap;html=1;fillColor=#B8E6B8;shadow=1;" parent="1" vertex="1">
          <mxGeometry x="230" y="170" width="330" height="40" as="geometry" />
        </mxCell>
        <mxCell id="r_Da3WctcucYN66TgovH-85" value="&lt;b style=&quot;&quot;&gt;&lt;font style=&quot;font-size: 36px;&quot;&gt;Controller&lt;/font&gt;&lt;/b&gt;" style="text;html=1;align=center;verticalAlign=middle;resizable=0;points=[];autosize=1;strokeColor=none;fillColor=none;shadow=1;" parent="1" vertex="1">
          <mxGeometry x="655" y="565" width="200" height="60" as="geometry" />
        </mxCell>
        <mxCell id="r_Da3WctcucYN66TgovH-86" value="&lt;font style=&quot;font-size: 36px;&quot;&gt;&lt;b style=&quot;&quot;&gt;Cache&lt;/b&gt;&lt;/font&gt;" style="rounded=0;whiteSpace=wrap;html=1;fillColor=#B8E6B8;shadow=1;" parent="1" vertex="1">
          <mxGeometry x="-100" y="550" width="720" height="80" as="geometry" />
        </mxCell>
        <mxCell id="r_Da3WctcucYN66TgovH-87" value="" style="endArrow=classic;startArrow=classic;html=1;rounded=0;shadow=1;" parent="1" edge="1">
          <mxGeometry width="50" height="50" relative="1" as="geometry">
            <mxPoint x="776" y="434.58000000000004" as="sourcePoint" />
            <mxPoint x="920" y="435" as="targetPoint" />
          </mxGeometry>
        </mxCell>
        <mxCell id="r_Da3WctcucYN66TgovH-89" value="&lt;font style=&quot;font-size: 36px;&quot;&gt;&lt;b style=&quot;&quot;&gt;PHY&lt;/b&gt;&lt;/font&gt;" style="rounded=0;whiteSpace=wrap;html=1;shadow=1;fillColor=#F7F7C6;" parent="1" vertex="1">
          <mxGeometry x="1132" y="100" width="90" height="600" as="geometry" />
        </mxCell>
        <mxCell id="r_Da3WctcucYN66TgovH-90" value="&lt;font style=&quot;font-size: 36px;&quot;&gt;&lt;b style=&quot;&quot;&gt;DFI&lt;/b&gt;&lt;/font&gt;" style="rounded=0;whiteSpace=wrap;html=1;fillColor=#F7F7C6;shadow=1;" parent="1" vertex="1">
          <mxGeometry x="921" y="200" width="79" height="360" as="geometry" />
        </mxCell>
        <mxCell id="r_Da3WctcucYN66TgovH-91" value="" style="shape=flexArrow;endArrow=classic;startArrow=classic;html=1;rounded=0;fillColor=#454545;shadow=1;" parent="1" edge="1">
          <mxGeometry width="100" height="100" relative="1" as="geometry">
            <mxPoint x="1002" y="413.82" as="sourcePoint" />
            <mxPoint x="1132" y="414.17" as="targetPoint" />
          </mxGeometry>
        </mxCell>
        <mxCell id="r_Da3WctcucYN66TgovH-93" value="&lt;font style=&quot;font-size: 24px;&quot;&gt;&lt;b style=&quot;&quot;&gt;Crossbar&lt;/b&gt;&lt;/font&gt;" style="text;html=1;align=center;verticalAlign=middle;resizable=0;points=[];autosize=1;strokeColor=none;fillColor=none;shadow=1;" parent="1" vertex="1">
          <mxGeometry x="640" y="190" width="130" height="40" as="geometry" />
        </mxCell>
        <mxCell id="r_Da3WctcucYN66TgovH-103" value="" style="shape=flexArrow;endArrow=classic;startArrow=classic;html=1;rounded=0;fillColor=#454545;shadow=1;" parent="1" edge="1">
          <mxGeometry width="100" height="100" relative="1" as="geometry">
            <mxPoint x="1002" y="314.17" as="sourcePoint" />
            <mxPoint x="1132" y="314.17" as="targetPoint" />
          </mxGeometry>
        </mxCell>
        <mxCell id="r_Da3WctcucYN66TgovH-104" value="&lt;font style=&quot;font-size: 24px;&quot;&gt;&lt;b&gt;PI 0&lt;/b&gt;&lt;/font&gt;" style="text;html=1;align=center;verticalAlign=middle;resizable=0;points=[];autosize=1;strokeColor=none;fillColor=none;shadow=1;" parent="1" vertex="1">
          <mxGeometry x="1032" y="274.17" width="70" height="40" as="geometry" />
        </mxCell>
        <mxCell id="r_Da3WctcucYN66TgovH-105" value="&lt;font style=&quot;font-size: 24px;&quot;&gt;&lt;b&gt;PI 1&lt;/b&gt;&lt;/font&gt;" style="text;html=1;align=center;verticalAlign=middle;resizable=0;points=[];autosize=1;strokeColor=none;fillColor=none;shadow=1;" parent="1" vertex="1">
          <mxGeometry x="1032" y="374.17" width="70" height="40" as="geometry" />
        </mxCell>
        <mxCell id="r_Da3WctcucYN66TgovH-106" value="" style="shape=flexArrow;endArrow=classic;startArrow=classic;html=1;rounded=0;fillColor=#454545;shadow=1;exitX=0.5;exitY=1;exitDx=0;exitDy=0;entryX=-0.001;entryY=0.512;entryDx=0;entryDy=0;entryPerimeter=0;" parent="1" source="r_Da3WctcucYN66TgovH-111" target="WecddZ69IYoT9JCLgWX9-24" edge="1">
          <mxGeometry width="100" height="100" relative="1" as="geometry">
            <mxPoint x="-154" y="436.92999999999995" as="sourcePoint" />
            <mxPoint x="-94" y="586.93" as="targetPoint" />
          </mxGeometry>
        </mxCell>
        <mxCell id="r_Da3WctcucYN66TgovH-111" value="&lt;font style=&quot;font-size: 36px;&quot;&gt;&lt;b style=&quot;&quot;&gt;Wishbone&lt;/b&gt;&lt;/font&gt;" style="rounded=0;whiteSpace=wrap;html=1;shadow=1;rotation=-90;fillColor=#F7F7C6;" parent="1" vertex="1">
          <mxGeometry x="-540" y="362.96999999999997" width="596.49" height="74.05" as="geometry" />
        </mxCell>
        <mxCell id="WecddZ69IYoT9JCLgWX9-8" style="edgeStyle=orthogonalEdgeStyle;rounded=0;orthogonalLoop=1;jettySize=auto;html=1;entryX=0.5;entryY=0;entryDx=0;entryDy=0;fillColor=#b6e3e7;" parent="1" source="WecddZ69IYoT9JCLgWX9-1" target="WecddZ69IYoT9JCLgWX9-3" edge="1">
          <mxGeometry relative="1" as="geometry" />
        </mxCell>
        <mxCell id="WecddZ69IYoT9JCLgWX9-1" value="&lt;span style=&quot;font-size: 24px; text-wrap: nowrap;&quot;&gt;&lt;b&gt;BankMachine_1*&lt;/b&gt;&lt;/span&gt;" style="rounded=0;whiteSpace=wrap;html=1;fillColor=#7EA6E0;shadow=1;" parent="1" vertex="1">
          <mxGeometry x="270" y="315.05" width="250" height="40" as="geometry" />
        </mxCell>
        <mxCell id="WecddZ69IYoT9JCLgWX9-7" style="edgeStyle=orthogonalEdgeStyle;rounded=0;orthogonalLoop=1;jettySize=auto;html=1;exitX=1;exitY=0.5;exitDx=0;exitDy=0;entryX=0.5;entryY=0;entryDx=0;entryDy=0;fillColor=#b6e3e7;" parent="1" source="WecddZ69IYoT9JCLgWX9-2" target="WecddZ69IYoT9JCLgWX9-3" edge="1">
          <mxGeometry relative="1" as="geometry" />
        </mxCell>
        <mxCell id="WecddZ69IYoT9JCLgWX9-2" value="&lt;span style=&quot;font-size: 24px; text-wrap: nowrap;&quot;&gt;&lt;b&gt;BankMachine_0*&lt;/b&gt;&lt;/span&gt;" style="rounded=0;whiteSpace=wrap;html=1;fillColor=#7EA6E0;shadow=1;" parent="1" vertex="1">
          <mxGeometry x="270" y="260.05" width="250" height="40" as="geometry" />
        </mxCell>
        <mxCell id="WecddZ69IYoT9JCLgWX9-3" value="" style="shape=trapezoid;perimeter=trapezoidPerimeter;whiteSpace=wrap;html=1;fixedSize=1;rotation=-90;size=30;fillColor=#7EA6E0;shadow=1;" parent="1" vertex="1">
          <mxGeometry x="590" y="285.05" width="120" height="30" as="geometry" />
        </mxCell>
        <mxCell id="WecddZ69IYoT9JCLgWX9-5" value="" style="shape=trapezoid;perimeter=trapezoidPerimeter;whiteSpace=wrap;html=1;fixedSize=1;rotation=90;size=30;fillColor=#7EA6E0;shadow=1;" parent="1" vertex="1">
          <mxGeometry x="700" y="285.05" width="120" height="30" as="geometry" />
        </mxCell>
        <mxCell id="WecddZ69IYoT9JCLgWX9-6" value="" style="shape=trapezoid;perimeter=trapezoidPerimeter;whiteSpace=wrap;html=1;fixedSize=1;rotation=90;size=30;fillColor=#7EA6E0;shadow=1;" parent="1" vertex="1">
          <mxGeometry x="700" y="420" width="120" height="30" as="geometry" />
        </mxCell>
        <mxCell id="WecddZ69IYoT9JCLgWX9-12" value="" style="endArrow=none;html=1;rounded=0;entryX=0.25;entryY=1;entryDx=0;entryDy=0;exitX=0.25;exitY=1;exitDx=0;exitDy=0;fillColor=#b6e3e7;" parent="1" source="WecddZ69IYoT9JCLgWX9-3" target="WecddZ69IYoT9JCLgWX9-6" edge="1">
          <mxGeometry width="50" height="50" relative="1" as="geometry">
            <mxPoint x="665" y="325" as="sourcePoint" />
            <mxPoint x="715" y="275.05" as="targetPoint" />
          </mxGeometry>
        </mxCell>
        <mxCell id="WecddZ69IYoT9JCLgWX9-14" value="" style="endArrow=none;html=1;rounded=0;entryX=0.5;entryY=1;entryDx=0;entryDy=0;exitX=0.5;exitY=1;exitDx=0;exitDy=0;fillColor=#b6e3e7;" parent="1" source="WecddZ69IYoT9JCLgWX9-3" target="WecddZ69IYoT9JCLgWX9-5" edge="1">
          <mxGeometry width="50" height="50" relative="1" as="geometry">
            <mxPoint x="540" y="420" as="sourcePoint" />
            <mxPoint x="590" y="370" as="targetPoint" />
          </mxGeometry>
        </mxCell>
        <mxCell id="WecddZ69IYoT9JCLgWX9-15" value="" style="endArrow=none;html=1;rounded=0;entryX=0.5;entryY=1;entryDx=0;entryDy=0;exitX=0.5;exitY=1;exitDx=0;exitDy=0;fillColor=#b6e3e7;" parent="1" source="r_Da3WctcucYN66TgovH-39" target="WecddZ69IYoT9JCLgWX9-6" edge="1">
          <mxGeometry width="50" height="50" relative="1" as="geometry">
            <mxPoint x="705" y="334.6" as="sourcePoint" />
            <mxPoint x="785" y="334.6" as="targetPoint" />
          </mxGeometry>
        </mxCell>
        <mxCell id="WecddZ69IYoT9JCLgWX9-16" value="" style="endArrow=none;html=1;rounded=0;entryX=0.75;entryY=1;entryDx=0;entryDy=0;exitX=0.75;exitY=1;exitDx=0;exitDy=0;fillColor=#b6e3e7;" parent="1" source="r_Da3WctcucYN66TgovH-39" target="WecddZ69IYoT9JCLgWX9-5" edge="1">
          <mxGeometry width="50" height="50" relative="1" as="geometry">
            <mxPoint x="665" y="370.05" as="sourcePoint" />
            <mxPoint x="745" y="370.05" as="targetPoint" />
          </mxGeometry>
        </mxCell>
        <mxCell id="WecddZ69IYoT9JCLgWX9-25" value="&lt;font style=&quot;font-size: 24px;&quot;&gt;&lt;b&gt;Reflasher&lt;/b&gt;&lt;/font&gt;" style="text;html=1;align=center;verticalAlign=middle;resizable=0;points=[];autosize=1;strokeColor=none;fillColor=none;" parent="1" vertex="1">
          <mxGeometry x="-94" y="170" width="130" height="40" as="geometry" />
        </mxCell>
        <mxCell id="WecddZ69IYoT9JCLgWX9-28" value="" style="endArrow=classic;html=1;rounded=0;exitX=0.768;exitY=1.003;exitDx=0;exitDy=0;exitPerimeter=0;fillColor=#b6e3e7;" parent="1" edge="1">
          <mxGeometry width="50" height="50" relative="1" as="geometry">
            <mxPoint x="184" y="335.02" as="sourcePoint" />
            <mxPoint x="270" y="335.02" as="targetPoint" />
          </mxGeometry>
        </mxCell>
        <mxCell id="WecddZ69IYoT9JCLgWX9-29" value="" style="endArrow=classic;html=1;rounded=0;exitX=0.768;exitY=1.003;exitDx=0;exitDy=0;exitPerimeter=0;fillColor=#b6e3e7;" parent="1" edge="1">
          <mxGeometry width="50" height="50" relative="1" as="geometry">
            <mxPoint x="184" y="400.97999999999996" as="sourcePoint" />
            <mxPoint x="270" y="400.97999999999996" as="targetPoint" />
          </mxGeometry>
        </mxCell>
        <mxCell id="WecddZ69IYoT9JCLgWX9-30" value="" style="endArrow=classic;html=1;rounded=0;exitX=0.768;exitY=1.003;exitDx=0;exitDy=0;exitPerimeter=0;fillColor=#b6e3e7;" parent="1" edge="1">
          <mxGeometry width="50" height="50" relative="1" as="geometry">
            <mxPoint x="184" y="464.78999999999996" as="sourcePoint" />
            <mxPoint x="270" y="464.78999999999996" as="targetPoint" />
          </mxGeometry>
        </mxCell>
        <mxCell id="WecddZ69IYoT9JCLgWX9-31" value="" style="endArrow=classic;html=1;rounded=0;exitX=0.768;exitY=1.003;exitDx=0;exitDy=0;exitPerimeter=0;fillColor=#b6e3e7;" parent="1" edge="1">
          <mxGeometry width="50" height="50" relative="1" as="geometry">
            <mxPoint x="184" y="279.69" as="sourcePoint" />
            <mxPoint x="270" y="279.69" as="targetPoint" />
          </mxGeometry>
        </mxCell>
        <mxCell id="r_Da3WctcucYN66TgovH-88" value="" style="endArrow=classic;startArrow=classic;html=1;rounded=0;shadow=1;" parent="1" edge="1">
          <mxGeometry width="50" height="50" relative="1" as="geometry">
            <mxPoint x="776" y="300.05" as="sourcePoint" />
            <mxPoint x="920" y="300" as="targetPoint" />
          </mxGeometry>
        </mxCell>
        <mxCell id="r_Da3WctcucYN66TgovH-15" value="&lt;span style=&quot;font-size: 24px; text-wrap: nowrap;&quot;&gt;&lt;b&gt;BankMachine_2*&lt;/b&gt;&lt;/span&gt;" style="rounded=0;whiteSpace=wrap;html=1;fillColor=#7EA6E0;shadow=1;" parent="1" vertex="1">
          <mxGeometry x="270" y="380" width="250" height="40" as="geometry" />
        </mxCell>
      </root>
    </mxGraphModel>
  </diagram>
</mxfile>
